<mxfile host="Electron" modified="2023-12-06T01:06:07.397Z" agent="Mozilla/5.0 (Macintosh; Intel Mac OS X 10_15_7) AppleWebKit/537.36 (KHTML, like Gecko) draw.io/22.1.2 Chrome/114.0.5735.289 Electron/25.9.4 Safari/537.36" etag="2UFtty90_4Jy9nMBtmFj" version="22.1.2" type="device">
  <diagram name="Page-1" id="2YBvvXClWsGukQMizWep">
    <mxGraphModel dx="1592" dy="828" grid="1" gridSize="10" guides="1" tooltips="1" connect="1" arrows="1" fold="1" page="1" pageScale="1" pageWidth="850" pageHeight="1100" math="0" shadow="0">
      <root>
        <mxCell id="0" />
        <mxCell id="1" parent="0" />
        <mxCell id="aM9ryv3xv72pqoxQDRHE-1" value="&amp;lt;&amp;lt;Actor&amp;gt;&amp;gt;&lt;br&gt;Administrator" style="shape=umlLifeline;perimeter=lifelinePerimeter;whiteSpace=wrap;html=1;container=0;dropTarget=0;collapsible=0;recursiveResize=0;outlineConnect=0;portConstraint=eastwest;newEdgeStyle={&quot;edgeStyle&quot;:&quot;elbowEdgeStyle&quot;,&quot;elbow&quot;:&quot;vertical&quot;,&quot;curved&quot;:0,&quot;rounded&quot;:0};" parent="1" vertex="1">
          <mxGeometry x="40" y="40" width="100" height="720" as="geometry" />
        </mxCell>
        <mxCell id="aM9ryv3xv72pqoxQDRHE-5" value="UI" style="shape=umlLifeline;perimeter=lifelinePerimeter;whiteSpace=wrap;html=1;container=0;dropTarget=0;collapsible=0;recursiveResize=0;outlineConnect=0;portConstraint=eastwest;newEdgeStyle={&quot;edgeStyle&quot;:&quot;elbowEdgeStyle&quot;,&quot;elbow&quot;:&quot;vertical&quot;,&quot;curved&quot;:0,&quot;rounded&quot;:0};" parent="1" vertex="1">
          <mxGeometry x="260" y="40" width="100" height="720" as="geometry" />
        </mxCell>
        <mxCell id="tzAvLBIY38gFi4zq9o81-4" value="" style="html=1;points=[];perimeter=orthogonalPerimeter;outlineConnect=0;targetShapes=umlLifeline;portConstraint=eastwest;newEdgeStyle={&quot;edgeStyle&quot;:&quot;elbowEdgeStyle&quot;,&quot;elbow&quot;:&quot;vertical&quot;,&quot;curved&quot;:0,&quot;rounded&quot;:0};" parent="aM9ryv3xv72pqoxQDRHE-5" vertex="1">
          <mxGeometry x="45" y="79" width="10" height="551" as="geometry" />
        </mxCell>
        <mxCell id="tzAvLBIY38gFi4zq9o81-15" value="" style="html=1;points=[];perimeter=orthogonalPerimeter;outlineConnect=0;targetShapes=umlLifeline;portConstraint=eastwest;newEdgeStyle={&quot;edgeStyle&quot;:&quot;elbowEdgeStyle&quot;,&quot;elbow&quot;:&quot;vertical&quot;,&quot;curved&quot;:0,&quot;rounded&quot;:0};" parent="aM9ryv3xv72pqoxQDRHE-5" vertex="1">
          <mxGeometry x="50" y="129" width="10" height="31" as="geometry" />
        </mxCell>
        <mxCell id="aTRSrtS2gHxj98zoEJVl-1" value="" style="endArrow=classic;html=1;rounded=0;" parent="aM9ryv3xv72pqoxQDRHE-5" source="tzAvLBIY38gFi4zq9o81-4" target="tzAvLBIY38gFi4zq9o81-15" edge="1">
          <mxGeometry width="50" height="50" relative="1" as="geometry">
            <mxPoint x="60" y="100" as="sourcePoint" />
            <mxPoint x="65" y="130" as="targetPoint" />
            <Array as="points">
              <mxPoint x="125" y="100" />
              <mxPoint x="125" y="130" />
            </Array>
          </mxGeometry>
        </mxCell>
        <mxCell id="tzAvLBIY38gFi4zq9o81-1" value="SystemController" style="shape=umlLifeline;perimeter=lifelinePerimeter;whiteSpace=wrap;html=1;container=0;dropTarget=0;collapsible=0;recursiveResize=0;outlineConnect=0;portConstraint=eastwest;newEdgeStyle={&quot;edgeStyle&quot;:&quot;elbowEdgeStyle&quot;,&quot;elbow&quot;:&quot;vertical&quot;,&quot;curved&quot;:0,&quot;rounded&quot;:0};" parent="1" vertex="1">
          <mxGeometry x="450" y="40" width="100" height="720" as="geometry" />
        </mxCell>
        <mxCell id="tzAvLBIY38gFi4zq9o81-7" value="" style="html=1;points=[];perimeter=orthogonalPerimeter;outlineConnect=0;targetShapes=umlLifeline;portConstraint=eastwest;newEdgeStyle={&quot;edgeStyle&quot;:&quot;elbowEdgeStyle&quot;,&quot;elbow&quot;:&quot;vertical&quot;,&quot;curved&quot;:0,&quot;rounded&quot;:0};" parent="tzAvLBIY38gFi4zq9o81-1" vertex="1">
          <mxGeometry x="45" y="197" width="10" height="243" as="geometry" />
        </mxCell>
        <mxCell id="FMM3vUtKrPc2eLG4mrar-15" value="" style="html=1;points=[];perimeter=orthogonalPerimeter;outlineConnect=0;targetShapes=umlLifeline;portConstraint=eastwest;newEdgeStyle={&quot;edgeStyle&quot;:&quot;elbowEdgeStyle&quot;,&quot;elbow&quot;:&quot;vertical&quot;,&quot;curved&quot;:0,&quot;rounded&quot;:0};" vertex="1" parent="tzAvLBIY38gFi4zq9o81-1">
          <mxGeometry x="45" y="549" width="10" height="101" as="geometry" />
        </mxCell>
        <mxCell id="tzAvLBIY38gFi4zq9o81-2" value="LibrayMember" style="shape=umlLifeline;perimeter=lifelinePerimeter;whiteSpace=wrap;html=1;container=0;dropTarget=0;collapsible=0;recursiveResize=0;outlineConnect=0;portConstraint=eastwest;newEdgeStyle={&quot;edgeStyle&quot;:&quot;elbowEdgeStyle&quot;,&quot;elbow&quot;:&quot;vertical&quot;,&quot;curved&quot;:0,&quot;rounded&quot;:0};" parent="1" vertex="1">
          <mxGeometry x="650" y="40" width="100" height="720" as="geometry" />
        </mxCell>
        <mxCell id="P7pZnIr9eBPzd5SZrVft-8" value="" style="html=1;points=[];perimeter=orthogonalPerimeter;outlineConnect=0;targetShapes=umlLifeline;portConstraint=eastwest;newEdgeStyle={&quot;edgeStyle&quot;:&quot;elbowEdgeStyle&quot;,&quot;elbow&quot;:&quot;vertical&quot;,&quot;curved&quot;:0,&quot;rounded&quot;:0};" parent="tzAvLBIY38gFi4zq9o81-2" vertex="1">
          <mxGeometry x="45" y="212" width="10" height="188" as="geometry" />
        </mxCell>
        <mxCell id="FMM3vUtKrPc2eLG4mrar-3" value="" style="html=1;points=[];perimeter=orthogonalPerimeter;outlineConnect=0;targetShapes=umlLifeline;portConstraint=eastwest;newEdgeStyle={&quot;edgeStyle&quot;:&quot;elbowEdgeStyle&quot;,&quot;elbow&quot;:&quot;vertical&quot;,&quot;curved&quot;:0,&quot;rounded&quot;:0};" vertex="1" parent="tzAvLBIY38gFi4zq9o81-2">
          <mxGeometry x="50" y="249" width="10" height="31" as="geometry" />
        </mxCell>
        <mxCell id="FMM3vUtKrPc2eLG4mrar-4" value="" style="endArrow=classic;html=1;rounded=0;" edge="1" parent="tzAvLBIY38gFi4zq9o81-2" source="P7pZnIr9eBPzd5SZrVft-8" target="FMM3vUtKrPc2eLG4mrar-3">
          <mxGeometry width="50" height="50" relative="1" as="geometry">
            <mxPoint x="60" y="220" as="sourcePoint" />
            <mxPoint x="65" y="250" as="targetPoint" />
            <Array as="points">
              <mxPoint x="130" y="220" />
              <mxPoint x="130" y="250" />
            </Array>
          </mxGeometry>
        </mxCell>
        <mxCell id="FMM3vUtKrPc2eLG4mrar-17" value="" style="html=1;points=[];perimeter=orthogonalPerimeter;outlineConnect=0;targetShapes=umlLifeline;portConstraint=eastwest;newEdgeStyle={&quot;edgeStyle&quot;:&quot;elbowEdgeStyle&quot;,&quot;elbow&quot;:&quot;vertical&quot;,&quot;curved&quot;:0,&quot;rounded&quot;:0};" vertex="1" parent="tzAvLBIY38gFi4zq9o81-2">
          <mxGeometry x="45" y="568" width="10" height="62" as="geometry" />
        </mxCell>
        <mxCell id="tzAvLBIY38gFi4zq9o81-3" value="" style="endArrow=classic;html=1;rounded=0;" parent="1" target="tzAvLBIY38gFi4zq9o81-4" edge="1">
          <mxGeometry width="50" height="50" relative="1" as="geometry">
            <mxPoint x="89.5" y="120" as="sourcePoint" />
            <mxPoint x="260" y="120" as="targetPoint" />
          </mxGeometry>
        </mxCell>
        <mxCell id="tzAvLBIY38gFi4zq9o81-5" value="1 : searchCheckout" style="text;html=1;strokeColor=none;fillColor=none;align=center;verticalAlign=middle;whiteSpace=wrap;rounded=0;" parent="1" vertex="1">
          <mxGeometry x="140" y="90" width="120" height="30" as="geometry" />
        </mxCell>
        <mxCell id="aTRSrtS2gHxj98zoEJVl-3" value="2 : showSearchCheckout" style="text;html=1;strokeColor=none;fillColor=none;align=center;verticalAlign=middle;whiteSpace=wrap;rounded=0;" parent="1" vertex="1">
          <mxGeometry x="380" y="140" width="140" height="30" as="geometry" />
        </mxCell>
        <mxCell id="P7pZnIr9eBPzd5SZrVft-1" value="" style="endArrow=classic;html=1;rounded=0;" parent="1" edge="1">
          <mxGeometry width="50" height="50" relative="1" as="geometry">
            <mxPoint x="315" y="238" as="sourcePoint" />
            <mxPoint x="495" y="238" as="targetPoint" />
          </mxGeometry>
        </mxCell>
        <mxCell id="P7pZnIr9eBPzd5SZrVft-2" value="3 : searchCheckout" style="text;html=1;strokeColor=none;fillColor=none;align=center;verticalAlign=middle;whiteSpace=wrap;rounded=0;" parent="1" vertex="1">
          <mxGeometry x="350" y="210" width="120" height="30" as="geometry" />
        </mxCell>
        <mxCell id="P7pZnIr9eBPzd5SZrVft-6" value="DataAccess" style="shape=umlLifeline;perimeter=lifelinePerimeter;whiteSpace=wrap;html=1;container=0;dropTarget=0;collapsible=0;recursiveResize=0;outlineConnect=0;portConstraint=eastwest;newEdgeStyle={&quot;edgeStyle&quot;:&quot;elbowEdgeStyle&quot;,&quot;elbow&quot;:&quot;vertical&quot;,&quot;curved&quot;:0,&quot;rounded&quot;:0};" parent="1" vertex="1">
          <mxGeometry x="1270" y="40" width="100" height="720" as="geometry" />
        </mxCell>
        <mxCell id="P7pZnIr9eBPzd5SZrVft-13" value="" style="html=1;points=[];perimeter=orthogonalPerimeter;outlineConnect=0;targetShapes=umlLifeline;portConstraint=eastwest;newEdgeStyle={&quot;edgeStyle&quot;:&quot;elbowEdgeStyle&quot;,&quot;elbow&quot;:&quot;vertical&quot;,&quot;curved&quot;:0,&quot;rounded&quot;:0};" parent="P7pZnIr9eBPzd5SZrVft-6" vertex="1">
          <mxGeometry x="45" y="319" width="10" height="50" as="geometry" />
        </mxCell>
        <mxCell id="P7pZnIr9eBPzd5SZrVft-7" value="" style="endArrow=classic;html=1;rounded=0;" parent="1" edge="1" target="P7pZnIr9eBPzd5SZrVft-8">
          <mxGeometry width="50" height="50" relative="1" as="geometry">
            <mxPoint x="505" y="253.5" as="sourcePoint" />
            <mxPoint x="655" y="254" as="targetPoint" />
          </mxGeometry>
        </mxCell>
        <mxCell id="P7pZnIr9eBPzd5SZrVft-18" value="7 : showCheckout" style="text;html=1;strokeColor=none;fillColor=none;align=center;verticalAlign=middle;whiteSpace=wrap;rounded=0;" parent="1" vertex="1">
          <mxGeometry x="367.5" y="481" width="165" height="30" as="geometry" />
        </mxCell>
        <mxCell id="P7pZnIr9eBPzd5SZrVft-17" value="" style="html=1;points=[];perimeter=orthogonalPerimeter;outlineConnect=0;targetShapes=umlLifeline;portConstraint=eastwest;newEdgeStyle={&quot;edgeStyle&quot;:&quot;elbowEdgeStyle&quot;,&quot;elbow&quot;:&quot;vertical&quot;,&quot;curved&quot;:0,&quot;rounded&quot;:0};" parent="1" vertex="1">
          <mxGeometry x="310" y="511" width="10" height="26" as="geometry" />
        </mxCell>
        <mxCell id="P7pZnIr9eBPzd5SZrVft-15" value="" style="endArrow=classic;html=1;rounded=0;" parent="1" edge="1">
          <mxGeometry width="50" height="50" relative="1" as="geometry">
            <mxPoint x="315" y="481" as="sourcePoint" />
            <mxPoint x="320" y="511" as="targetPoint" />
            <Array as="points">
              <mxPoint x="395" y="481" />
              <mxPoint x="395" y="511" />
            </Array>
          </mxGeometry>
        </mxCell>
        <mxCell id="FMM3vUtKrPc2eLG4mrar-1" value="4 : searchCheckout" style="text;html=1;strokeColor=none;fillColor=none;align=center;verticalAlign=middle;whiteSpace=wrap;rounded=0;" vertex="1" parent="1">
          <mxGeometry x="520" y="220" width="140" height="30" as="geometry" />
        </mxCell>
        <mxCell id="FMM3vUtKrPc2eLG4mrar-5" value="5 : validationMemberId" style="text;html=1;strokeColor=none;fillColor=none;align=center;verticalAlign=middle;whiteSpace=wrap;rounded=0;" vertex="1" parent="1">
          <mxGeometry x="780" y="260" width="140" height="30" as="geometry" />
        </mxCell>
        <mxCell id="FMM3vUtKrPc2eLG4mrar-6" value="" style="endArrow=classic;html=1;rounded=0;" edge="1" parent="1" source="P7pZnIr9eBPzd5SZrVft-8" target="P7pZnIr9eBPzd5SZrVft-13">
          <mxGeometry width="50" height="50" relative="1" as="geometry">
            <mxPoint x="710" y="360" as="sourcePoint" />
            <mxPoint x="950" y="361" as="targetPoint" />
          </mxGeometry>
        </mxCell>
        <mxCell id="FMM3vUtKrPc2eLG4mrar-7" value="6 : getCheckoutByMemberId" style="text;html=1;strokeColor=none;fillColor=none;align=center;verticalAlign=middle;whiteSpace=wrap;rounded=0;" vertex="1" parent="1">
          <mxGeometry x="750" y="325" width="180" height="30" as="geometry" />
        </mxCell>
        <mxCell id="FMM3vUtKrPc2eLG4mrar-10" value="" style="endArrow=classic;html=1;rounded=0;" edge="1" parent="1">
          <mxGeometry width="50" height="50" relative="1" as="geometry">
            <mxPoint x="92.25" y="560" as="sourcePoint" />
            <mxPoint x="307.75" y="560" as="targetPoint" />
          </mxGeometry>
        </mxCell>
        <mxCell id="FMM3vUtKrPc2eLG4mrar-11" value="8 : print" style="text;html=1;strokeColor=none;fillColor=none;align=center;verticalAlign=middle;whiteSpace=wrap;rounded=0;" vertex="1" parent="1">
          <mxGeometry x="140" y="530" width="120" height="30" as="geometry" />
        </mxCell>
        <mxCell id="FMM3vUtKrPc2eLG4mrar-12" value="" style="endArrow=classic;html=1;rounded=0;" edge="1" parent="1">
          <mxGeometry width="50" height="50" relative="1" as="geometry">
            <mxPoint x="315" y="588.5" as="sourcePoint" />
            <mxPoint x="495" y="588.5" as="targetPoint" />
          </mxGeometry>
        </mxCell>
        <mxCell id="FMM3vUtKrPc2eLG4mrar-13" value="9 : printCheckout" style="text;html=1;strokeColor=none;fillColor=none;align=center;verticalAlign=middle;whiteSpace=wrap;rounded=0;" vertex="1" parent="1">
          <mxGeometry x="350" y="560" width="120" height="30" as="geometry" />
        </mxCell>
        <mxCell id="FMM3vUtKrPc2eLG4mrar-16" value="" style="endArrow=classic;html=1;rounded=0;" edge="1" parent="1" target="FMM3vUtKrPc2eLG4mrar-17">
          <mxGeometry width="50" height="50" relative="1" as="geometry">
            <mxPoint x="505" y="609" as="sourcePoint" />
            <mxPoint x="680" y="609" as="targetPoint" />
          </mxGeometry>
        </mxCell>
        <mxCell id="FMM3vUtKrPc2eLG4mrar-18" value="11 : * printCheckout" style="text;html=1;strokeColor=none;fillColor=none;align=center;verticalAlign=middle;whiteSpace=wrap;rounded=0;" vertex="1" parent="1">
          <mxGeometry x="800" y="598" width="120" height="30" as="geometry" />
        </mxCell>
        <mxCell id="FMM3vUtKrPc2eLG4mrar-19" value="CheckoutRecord" style="shape=umlLifeline;perimeter=lifelinePerimeter;whiteSpace=wrap;html=1;container=0;dropTarget=0;collapsible=0;recursiveResize=0;outlineConnect=0;portConstraint=eastwest;newEdgeStyle={&quot;edgeStyle&quot;:&quot;elbowEdgeStyle&quot;,&quot;elbow&quot;:&quot;vertical&quot;,&quot;curved&quot;:0,&quot;rounded&quot;:0};" vertex="1" parent="1">
          <mxGeometry x="990" y="40" width="100" height="720" as="geometry" />
        </mxCell>
        <mxCell id="FMM3vUtKrPc2eLG4mrar-21" value="" style="html=1;points=[];perimeter=orthogonalPerimeter;outlineConnect=0;targetShapes=umlLifeline;portConstraint=eastwest;newEdgeStyle={&quot;edgeStyle&quot;:&quot;elbowEdgeStyle&quot;,&quot;elbow&quot;:&quot;vertical&quot;,&quot;curved&quot;:0,&quot;rounded&quot;:0};" vertex="1" parent="FMM3vUtKrPc2eLG4mrar-19">
          <mxGeometry x="45" y="587" width="10" height="32" as="geometry" />
        </mxCell>
        <mxCell id="FMM3vUtKrPc2eLG4mrar-22" value="" style="endArrow=classic;html=1;rounded=0;" edge="1" parent="1">
          <mxGeometry width="50" height="50" relative="1" as="geometry">
            <mxPoint x="705" y="628" as="sourcePoint" />
            <mxPoint x="1035" y="628" as="targetPoint" />
          </mxGeometry>
        </mxCell>
        <mxCell id="FMM3vUtKrPc2eLG4mrar-23" value="10 : printCheckout" style="text;html=1;strokeColor=none;fillColor=none;align=center;verticalAlign=middle;whiteSpace=wrap;rounded=0;" vertex="1" parent="1">
          <mxGeometry x="532.5" y="580" width="120" height="30" as="geometry" />
        </mxCell>
      </root>
    </mxGraphModel>
  </diagram>
</mxfile>
